<svg width="1920" height="1244" viewBox="0 0 1920 1244" fill="none" xmlns="http://www.w3.org/2000/svg">
<path d="M-143.962 1040.62L-65.3636 907.418H-222.561L-143.962 1040.62Z" fill="url(#paint0_linear_2052_1426)"/>
<path d="M-62.2197 883.2L16.3788 750H-140.818L-62.2197 883.2Z" fill="url(#paint1_linear_2052_1426)"/>
<path d="M-175.402 750L-96.803 883.2H-254L-175.402 750Z" fill="url(#paint2_linear_2052_1426)"/>
<path d="M41.5303 874.118L72.9697 816.6H10.0909L41.5303 874.118Z" fill="url(#paint3_linear_2052_1426)"/>
<path d="M41.5303 750L72.9697 804.491H10.0909L41.5303 750Z" fill="url(#paint4_linear_2052_1426)"/>
<path d="M60.3939 1083L104.409 1004.29H16.3788L60.3939 1083Z" fill="url(#paint5_linear_2052_1426)"/>
<path d="M3.80304 986.127L47.8182 907.418H-40.2121L3.80304 986.127Z" fill="url(#paint6_linear_2052_1426)"/>
<path d="M116.985 986.127L161 907.418H72.9697L116.985 986.127Z" fill="url(#paint7_linear_2052_1426)"/>
<path d="M60.3939 913.473L104.409 992.182H16.3788L60.3939 913.473Z" fill="url(#paint8_linear_2052_1426)"/>
<path d="M-2.48484 828.709L28.9546 883.2H-33.9242L-2.48484 828.709Z" fill="url(#paint9_linear_2052_1426)"/>
<path d="M85.5455 828.709L116.985 883.2H54.1061L85.5455 828.709Z" fill="url(#paint10_linear_2052_1426)"/>
<path d="M-55.9318 949.8L22.6667 1083H-134.53L-55.9318 949.8Z" fill="url(#paint11_linear_2052_1426)"/>
<path d="M379.962 953.382L301.364 1086.58H458.561L379.962 953.382Z" fill="url(#paint12_linear_2052_1426)"/>
<path d="M298.22 1110.8L219.621 1244H376.818L298.22 1110.8Z" fill="url(#paint13_linear_2052_1426)"/>
<path d="M411.402 1244L332.803 1110.8H490L411.402 1244Z" fill="url(#paint14_linear_2052_1426)"/>
<path d="M194.47 1119.88L163.03 1177.4H225.909L194.47 1119.88Z" fill="url(#paint15_linear_2052_1426)"/>
<path d="M194.47 1244L163.03 1189.51H225.909L194.47 1244Z" fill="url(#paint16_linear_2052_1426)"/>
<path d="M175.606 911L131.591 989.709L219.621 989.709L175.606 911Z" fill="url(#paint17_linear_2052_1426)"/>
<path d="M232.197 1007.87L188.182 1086.58H276.212L232.197 1007.87Z" fill="url(#paint18_linear_2052_1426)"/>
<path d="M119.015 1007.87L75 1086.58H163.03L119.015 1007.87Z" fill="url(#paint19_linear_2052_1426)"/>
<path d="M175.606 1080.53L131.591 1001.82L219.621 1001.82L175.606 1080.53Z" fill="url(#paint20_linear_2052_1426)"/>
<path d="M238.485 1165.29L207.045 1110.8H269.924L238.485 1165.29Z" fill="url(#paint21_linear_2052_1426)"/>
<path d="M150.455 1165.29L119.015 1110.8H181.894L150.455 1165.29Z" fill="url(#paint22_linear_2052_1426)"/>
<path d="M291.932 1044.2L213.333 911H370.53L291.932 1044.2Z" fill="url(#paint23_linear_2052_1426)"/>
<path d="M1601.04 1023.62L1679.64 890.418H1522.44L1601.04 1023.62Z" fill="url(#paint24_linear_2052_1426)"/>
<path d="M1682.78 866.2L1761.38 733H1604.18L1682.78 866.2Z" fill="url(#paint25_linear_2052_1426)"/>
<path d="M1569.6 733L1648.2 866.2H1491L1569.6 733Z" fill="url(#paint26_linear_2052_1426)"/>
<path d="M1786.53 857.118L1817.97 799.6H1755.09L1786.53 857.118Z" fill="url(#paint27_linear_2052_1426)"/>
<path d="M1786.53 733L1817.97 787.491H1755.09L1786.53 733Z" fill="url(#paint28_linear_2052_1426)"/>
<path d="M1805.39 1066L1849.41 987.291H1761.38L1805.39 1066Z" fill="url(#paint29_linear_2052_1426)"/>
<path d="M1748.8 969.127L1792.82 890.418H1704.79L1748.8 969.127Z" fill="url(#paint30_linear_2052_1426)"/>
<path d="M1861.98 969.127L1906 890.418H1817.97L1861.98 969.127Z" fill="url(#paint31_linear_2052_1426)"/>
<path d="M1805.39 896.473L1849.41 975.182H1761.38L1805.39 896.473Z" fill="url(#paint32_linear_2052_1426)"/>
<path d="M1742.52 811.709L1773.95 866.2H1711.08L1742.52 811.709Z" fill="url(#paint33_linear_2052_1426)"/>
<path d="M1830.55 811.709L1861.98 866.2H1799.11L1830.55 811.709Z" fill="url(#paint34_linear_2052_1426)"/>
<path d="M1689.07 932.8L1767.67 1066H1610.47L1689.07 932.8Z" fill="url(#paint35_linear_2052_1426)"/>
<path d="M2124.96 936.382L2046.36 1069.58H2203.56L2124.96 936.382Z" fill="url(#paint36_linear_2052_1426)"/>
<path d="M2043.22 1093.8L1964.62 1227H2121.82L2043.22 1093.8Z" fill="url(#paint37_linear_2052_1426)"/>
<path d="M2156.4 1227L2077.8 1093.8H2235L2156.4 1227Z" fill="url(#paint38_linear_2052_1426)"/>
<path d="M1939.47 1102.88L1908.03 1160.4H1970.91L1939.47 1102.88Z" fill="url(#paint39_linear_2052_1426)"/>
<path d="M1939.47 1227L1908.03 1172.51H1970.91L1939.47 1227Z" fill="url(#paint40_linear_2052_1426)"/>
<path d="M1920.61 894L1876.59 972.709L1964.62 972.709L1920.61 894Z" fill="url(#paint41_linear_2052_1426)"/>
<path d="M1977.2 990.873L1933.18 1069.58H2021.21L1977.2 990.873Z" fill="url(#paint42_linear_2052_1426)"/>
<path d="M1864.02 990.873L1820 1069.58H1908.03L1864.02 990.873Z" fill="url(#paint43_linear_2052_1426)"/>
<path d="M1920.61 1063.53L1876.59 984.818L1964.62 984.818L1920.61 1063.53Z" fill="url(#paint44_linear_2052_1426)"/>
<path d="M1983.48 1148.29L1952.05 1093.8H2014.92L1983.48 1148.29Z" fill="url(#paint45_linear_2052_1426)"/>
<path d="M1895.45 1148.29L1864.02 1093.8H1926.89L1895.45 1148.29Z" fill="url(#paint46_linear_2052_1426)"/>
<path d="M2036.93 1027.2L1958.33 894H2115.53L2036.93 1027.2Z" fill="url(#paint47_linear_2052_1426)"/>
<path d="M185.038 402.618L263.636 269.418H106.439L185.038 402.618Z" fill="url(#paint48_linear_2052_1426)"/>
<path d="M266.78 245.2L345.379 112H188.182L266.78 245.2Z" fill="url(#paint49_linear_2052_1426)"/>
<path d="M153.598 112L232.197 245.2H75L153.598 112Z" fill="url(#paint50_linear_2052_1426)"/>
<path d="M370.53 236.118L401.97 178.6H339.091L370.53 236.118Z" fill="url(#paint51_linear_2052_1426)"/>
<path d="M370.53 112L401.97 166.491H339.091L370.53 112Z" fill="url(#paint52_linear_2052_1426)"/>
<path d="M389.394 445L433.409 366.291H345.379L389.394 445Z" fill="url(#paint53_linear_2052_1426)"/>
<path d="M332.803 348.127L376.818 269.418H288.788L332.803 348.127Z" fill="url(#paint54_linear_2052_1426)"/>
<path d="M445.985 348.127L490 269.418H401.97L445.985 348.127Z" fill="url(#paint55_linear_2052_1426)"/>
<path d="M389.394 275.473L433.409 354.182H345.379L389.394 275.473Z" fill="url(#paint56_linear_2052_1426)"/>
<path d="M326.515 190.709L357.955 245.2H295.076L326.515 190.709Z" fill="url(#paint57_linear_2052_1426)"/>
<path d="M414.545 190.709L445.985 245.2H383.106L414.545 190.709Z" fill="url(#paint58_linear_2052_1426)"/>
<path d="M273.068 311.8L351.667 445H194.47L273.068 311.8Z" fill="url(#paint59_linear_2052_1426)"/>
<path d="M717.164 63.2958L562.51 61.8275L641.108 197.964L717.164 63.2958Z" fill="url(#paint60_linear_2052_1426)"/>
<path d="M539.964 71.2139L385.311 69.7456L463.909 205.882L539.964 71.2139Z" fill="url(#paint61_linear_2052_1426)"/>
<path d="M481.201 235.832L557.256 101.164L635.855 237.301L481.201 235.832Z" fill="url(#paint62_linear_2052_1426)"/>
<path d="M480.224 -14.0953L414.692 -12.5636L446.132 41.8911L480.224 -14.0953Z" fill="url(#paint63_linear_2052_1426)"/>
<path d="M372.735 47.9638L404.206 -6.50901L435.645 47.9456L372.735 47.9638Z" fill="url(#paint64_linear_2052_1426)"/>
<path d="M651.689 -134.873L561.518 -133.636L605.533 -57.3998L651.689 -134.873Z" fill="url(#paint65_linear_2052_1426)"/>
<path d="M596.091 -37.4271L505.919 -36.1908L549.934 40.0457L596.091 -37.4271Z" fill="url(#paint66_linear_2052_1426)"/>
<path d="M539.5 -135.445L449.328 -134.209L493.343 -57.9726L539.5 -135.445Z" fill="url(#paint67_linear_2052_1426)"/>
<path d="M504.875 -50.109L551.031 -127.582L595.046 -51.3453L504.875 -50.109Z" fill="url(#paint68_linear_2052_1426)"/>
<path d="M462.906 46.7275L494.377 -7.74531L525.817 46.7093L462.906 46.7275Z" fill="url(#paint69_linear_2052_1426)"/>
<path d="M418.891 -29.509L450.362 -83.9818L481.802 -29.5272L418.891 -29.509Z" fill="url(#paint70_linear_2052_1426)"/>
<path d="M594.498 32.4684L670.553 -102.2L749.152 33.9367L594.498 32.4684Z" fill="url(#paint71_linear_2052_1426)"/>
<defs>
<linearGradient id="paint0_linear_2052_1426" x1="104.409" y1="1007.32" x2="-202.665" y2="796.839" gradientUnits="userSpaceOnUse">
<stop stop-color="#0004FF"/>
<stop offset="1" stop-color="#FB00FF"/>
</linearGradient>
<linearGradient id="paint1_linear_2052_1426" x1="104.409" y1="1007.32" x2="-202.665" y2="796.839" gradientUnits="userSpaceOnUse">
<stop stop-color="#0004FF"/>
<stop offset="1" stop-color="#FB00FF"/>
</linearGradient>
<linearGradient id="paint2_linear_2052_1426" x1="104.409" y1="1007.32" x2="-202.665" y2="796.839" gradientUnits="userSpaceOnUse">
<stop stop-color="#0004FF"/>
<stop offset="1" stop-color="#FB00FF"/>
</linearGradient>
<linearGradient id="paint3_linear_2052_1426" x1="104.409" y1="1007.32" x2="-202.665" y2="796.839" gradientUnits="userSpaceOnUse">
<stop stop-color="#0004FF"/>
<stop offset="1" stop-color="#FB00FF"/>
</linearGradient>
<linearGradient id="paint4_linear_2052_1426" x1="104.409" y1="1007.32" x2="-202.665" y2="796.839" gradientUnits="userSpaceOnUse">
<stop stop-color="#0004FF"/>
<stop offset="1" stop-color="#FB00FF"/>
</linearGradient>
<linearGradient id="paint5_linear_2052_1426" x1="104.409" y1="1007.32" x2="-202.665" y2="796.839" gradientUnits="userSpaceOnUse">
<stop stop-color="#0004FF"/>
<stop offset="1" stop-color="#FB00FF"/>
</linearGradient>
<linearGradient id="paint6_linear_2052_1426" x1="104.409" y1="1007.32" x2="-202.665" y2="796.839" gradientUnits="userSpaceOnUse">
<stop stop-color="#0004FF"/>
<stop offset="1" stop-color="#FB00FF"/>
</linearGradient>
<linearGradient id="paint7_linear_2052_1426" x1="104.409" y1="1007.32" x2="-202.665" y2="796.839" gradientUnits="userSpaceOnUse">
<stop stop-color="#0004FF"/>
<stop offset="1" stop-color="#FB00FF"/>
</linearGradient>
<linearGradient id="paint8_linear_2052_1426" x1="104.409" y1="1007.32" x2="-202.665" y2="796.839" gradientUnits="userSpaceOnUse">
<stop stop-color="#0004FF"/>
<stop offset="1" stop-color="#FB00FF"/>
</linearGradient>
<linearGradient id="paint9_linear_2052_1426" x1="104.409" y1="1007.32" x2="-202.665" y2="796.839" gradientUnits="userSpaceOnUse">
<stop stop-color="#0004FF"/>
<stop offset="1" stop-color="#FB00FF"/>
</linearGradient>
<linearGradient id="paint10_linear_2052_1426" x1="104.409" y1="1007.32" x2="-202.665" y2="796.839" gradientUnits="userSpaceOnUse">
<stop stop-color="#0004FF"/>
<stop offset="1" stop-color="#FB00FF"/>
</linearGradient>
<linearGradient id="paint11_linear_2052_1426" x1="104.409" y1="1007.32" x2="-202.665" y2="796.839" gradientUnits="userSpaceOnUse">
<stop stop-color="#0004FF"/>
<stop offset="1" stop-color="#FB00FF"/>
</linearGradient>
<linearGradient id="paint12_linear_2052_1426" x1="131.591" y1="986.682" x2="438.665" y2="1197.16" gradientUnits="userSpaceOnUse">
<stop stop-color="#0004FF"/>
<stop offset="1" stop-color="#FB00FF"/>
</linearGradient>
<linearGradient id="paint13_linear_2052_1426" x1="131.591" y1="986.682" x2="438.665" y2="1197.16" gradientUnits="userSpaceOnUse">
<stop stop-color="#0004FF"/>
<stop offset="1" stop-color="#FB00FF"/>
</linearGradient>
<linearGradient id="paint14_linear_2052_1426" x1="131.591" y1="986.682" x2="438.665" y2="1197.16" gradientUnits="userSpaceOnUse">
<stop stop-color="#0004FF"/>
<stop offset="1" stop-color="#FB00FF"/>
</linearGradient>
<linearGradient id="paint15_linear_2052_1426" x1="131.591" y1="986.682" x2="438.665" y2="1197.16" gradientUnits="userSpaceOnUse">
<stop stop-color="#0004FF"/>
<stop offset="1" stop-color="#FB00FF"/>
</linearGradient>
<linearGradient id="paint16_linear_2052_1426" x1="131.591" y1="986.682" x2="438.665" y2="1197.16" gradientUnits="userSpaceOnUse">
<stop stop-color="#0004FF"/>
<stop offset="1" stop-color="#FB00FF"/>
</linearGradient>
<linearGradient id="paint17_linear_2052_1426" x1="131.591" y1="986.682" x2="438.665" y2="1197.16" gradientUnits="userSpaceOnUse">
<stop stop-color="#0004FF"/>
<stop offset="1" stop-color="#FB00FF"/>
</linearGradient>
<linearGradient id="paint18_linear_2052_1426" x1="131.591" y1="986.682" x2="438.665" y2="1197.16" gradientUnits="userSpaceOnUse">
<stop stop-color="#0004FF"/>
<stop offset="1" stop-color="#FB00FF"/>
</linearGradient>
<linearGradient id="paint19_linear_2052_1426" x1="131.591" y1="986.682" x2="438.665" y2="1197.16" gradientUnits="userSpaceOnUse">
<stop stop-color="#0004FF"/>
<stop offset="1" stop-color="#FB00FF"/>
</linearGradient>
<linearGradient id="paint20_linear_2052_1426" x1="131.591" y1="986.682" x2="438.665" y2="1197.16" gradientUnits="userSpaceOnUse">
<stop stop-color="#0004FF"/>
<stop offset="1" stop-color="#FB00FF"/>
</linearGradient>
<linearGradient id="paint21_linear_2052_1426" x1="131.591" y1="986.682" x2="438.665" y2="1197.16" gradientUnits="userSpaceOnUse">
<stop stop-color="#0004FF"/>
<stop offset="1" stop-color="#FB00FF"/>
</linearGradient>
<linearGradient id="paint22_linear_2052_1426" x1="131.591" y1="986.682" x2="438.665" y2="1197.16" gradientUnits="userSpaceOnUse">
<stop stop-color="#0004FF"/>
<stop offset="1" stop-color="#FB00FF"/>
</linearGradient>
<linearGradient id="paint23_linear_2052_1426" x1="131.591" y1="986.682" x2="438.665" y2="1197.16" gradientUnits="userSpaceOnUse">
<stop stop-color="#0004FF"/>
<stop offset="1" stop-color="#FB00FF"/>
</linearGradient>
<linearGradient id="paint24_linear_2052_1426" x1="1849.41" y1="990.318" x2="1542.34" y2="779.839" gradientUnits="userSpaceOnUse">
<stop stop-color="#0004FF"/>
<stop offset="1" stop-color="#FB00FF"/>
</linearGradient>
<linearGradient id="paint25_linear_2052_1426" x1="1849.41" y1="990.318" x2="1542.34" y2="779.839" gradientUnits="userSpaceOnUse">
<stop stop-color="#0004FF"/>
<stop offset="1" stop-color="#FB00FF"/>
</linearGradient>
<linearGradient id="paint26_linear_2052_1426" x1="1849.41" y1="990.318" x2="1542.34" y2="779.839" gradientUnits="userSpaceOnUse">
<stop stop-color="#0004FF"/>
<stop offset="1" stop-color="#FB00FF"/>
</linearGradient>
<linearGradient id="paint27_linear_2052_1426" x1="1849.41" y1="990.318" x2="1542.34" y2="779.839" gradientUnits="userSpaceOnUse">
<stop stop-color="#0004FF"/>
<stop offset="1" stop-color="#FB00FF"/>
</linearGradient>
<linearGradient id="paint28_linear_2052_1426" x1="1849.41" y1="990.318" x2="1542.34" y2="779.839" gradientUnits="userSpaceOnUse">
<stop stop-color="#0004FF"/>
<stop offset="1" stop-color="#FB00FF"/>
</linearGradient>
<linearGradient id="paint29_linear_2052_1426" x1="1849.41" y1="990.318" x2="1542.34" y2="779.839" gradientUnits="userSpaceOnUse">
<stop stop-color="#0004FF"/>
<stop offset="1" stop-color="#FB00FF"/>
</linearGradient>
<linearGradient id="paint30_linear_2052_1426" x1="1849.41" y1="990.318" x2="1542.34" y2="779.839" gradientUnits="userSpaceOnUse">
<stop stop-color="#0004FF"/>
<stop offset="1" stop-color="#FB00FF"/>
</linearGradient>
<linearGradient id="paint31_linear_2052_1426" x1="1849.41" y1="990.318" x2="1542.34" y2="779.839" gradientUnits="userSpaceOnUse">
<stop stop-color="#0004FF"/>
<stop offset="1" stop-color="#FB00FF"/>
</linearGradient>
<linearGradient id="paint32_linear_2052_1426" x1="1849.41" y1="990.318" x2="1542.34" y2="779.839" gradientUnits="userSpaceOnUse">
<stop stop-color="#0004FF"/>
<stop offset="1" stop-color="#FB00FF"/>
</linearGradient>
<linearGradient id="paint33_linear_2052_1426" x1="1849.41" y1="990.318" x2="1542.34" y2="779.839" gradientUnits="userSpaceOnUse">
<stop stop-color="#0004FF"/>
<stop offset="1" stop-color="#FB00FF"/>
</linearGradient>
<linearGradient id="paint34_linear_2052_1426" x1="1849.41" y1="990.318" x2="1542.34" y2="779.839" gradientUnits="userSpaceOnUse">
<stop stop-color="#0004FF"/>
<stop offset="1" stop-color="#FB00FF"/>
</linearGradient>
<linearGradient id="paint35_linear_2052_1426" x1="1849.41" y1="990.318" x2="1542.34" y2="779.839" gradientUnits="userSpaceOnUse">
<stop stop-color="#0004FF"/>
<stop offset="1" stop-color="#FB00FF"/>
</linearGradient>
<linearGradient id="paint36_linear_2052_1426" x1="1876.59" y1="969.682" x2="2183.66" y2="1180.16" gradientUnits="userSpaceOnUse">
<stop stop-color="#0004FF"/>
<stop offset="1" stop-color="#FB00FF"/>
</linearGradient>
<linearGradient id="paint37_linear_2052_1426" x1="1876.59" y1="969.682" x2="2183.66" y2="1180.16" gradientUnits="userSpaceOnUse">
<stop stop-color="#0004FF"/>
<stop offset="1" stop-color="#FB00FF"/>
</linearGradient>
<linearGradient id="paint38_linear_2052_1426" x1="1876.59" y1="969.682" x2="2183.66" y2="1180.16" gradientUnits="userSpaceOnUse">
<stop stop-color="#0004FF"/>
<stop offset="1" stop-color="#FB00FF"/>
</linearGradient>
<linearGradient id="paint39_linear_2052_1426" x1="1876.59" y1="969.682" x2="2183.66" y2="1180.16" gradientUnits="userSpaceOnUse">
<stop stop-color="#0004FF"/>
<stop offset="1" stop-color="#FB00FF"/>
</linearGradient>
<linearGradient id="paint40_linear_2052_1426" x1="1876.59" y1="969.682" x2="2183.66" y2="1180.16" gradientUnits="userSpaceOnUse">
<stop stop-color="#0004FF"/>
<stop offset="1" stop-color="#FB00FF"/>
</linearGradient>
<linearGradient id="paint41_linear_2052_1426" x1="1876.59" y1="969.682" x2="2183.66" y2="1180.16" gradientUnits="userSpaceOnUse">
<stop stop-color="#0004FF"/>
<stop offset="1" stop-color="#FB00FF"/>
</linearGradient>
<linearGradient id="paint42_linear_2052_1426" x1="1876.59" y1="969.682" x2="2183.66" y2="1180.16" gradientUnits="userSpaceOnUse">
<stop stop-color="#0004FF"/>
<stop offset="1" stop-color="#FB00FF"/>
</linearGradient>
<linearGradient id="paint43_linear_2052_1426" x1="1876.59" y1="969.682" x2="2183.66" y2="1180.16" gradientUnits="userSpaceOnUse">
<stop stop-color="#0004FF"/>
<stop offset="1" stop-color="#FB00FF"/>
</linearGradient>
<linearGradient id="paint44_linear_2052_1426" x1="1876.59" y1="969.682" x2="2183.66" y2="1180.16" gradientUnits="userSpaceOnUse">
<stop stop-color="#0004FF"/>
<stop offset="1" stop-color="#FB00FF"/>
</linearGradient>
<linearGradient id="paint45_linear_2052_1426" x1="1876.59" y1="969.682" x2="2183.66" y2="1180.16" gradientUnits="userSpaceOnUse">
<stop stop-color="#0004FF"/>
<stop offset="1" stop-color="#FB00FF"/>
</linearGradient>
<linearGradient id="paint46_linear_2052_1426" x1="1876.59" y1="969.682" x2="2183.66" y2="1180.16" gradientUnits="userSpaceOnUse">
<stop stop-color="#0004FF"/>
<stop offset="1" stop-color="#FB00FF"/>
</linearGradient>
<linearGradient id="paint47_linear_2052_1426" x1="1876.59" y1="969.682" x2="2183.66" y2="1180.16" gradientUnits="userSpaceOnUse">
<stop stop-color="#0004FF"/>
<stop offset="1" stop-color="#FB00FF"/>
</linearGradient>
<linearGradient id="paint48_linear_2052_1426" x1="433.409" y1="369.318" x2="126.335" y2="158.839" gradientUnits="userSpaceOnUse">
<stop stop-color="#0871F9"/>
<stop offset="1" stop-color="#F908AB"/>
</linearGradient>
<linearGradient id="paint49_linear_2052_1426" x1="433.409" y1="369.318" x2="126.335" y2="158.839" gradientUnits="userSpaceOnUse">
<stop stop-color="#0871F9"/>
<stop offset="1" stop-color="#F908AB"/>
</linearGradient>
<linearGradient id="paint50_linear_2052_1426" x1="433.409" y1="369.318" x2="126.335" y2="158.839" gradientUnits="userSpaceOnUse">
<stop stop-color="#0871F9"/>
<stop offset="1" stop-color="#F908AB"/>
</linearGradient>
<linearGradient id="paint51_linear_2052_1426" x1="433.409" y1="369.318" x2="126.335" y2="158.839" gradientUnits="userSpaceOnUse">
<stop stop-color="#0871F9"/>
<stop offset="1" stop-color="#F908AB"/>
</linearGradient>
<linearGradient id="paint52_linear_2052_1426" x1="433.409" y1="369.318" x2="126.335" y2="158.839" gradientUnits="userSpaceOnUse">
<stop stop-color="#0871F9"/>
<stop offset="1" stop-color="#F908AB"/>
</linearGradient>
<linearGradient id="paint53_linear_2052_1426" x1="433.409" y1="369.318" x2="126.335" y2="158.839" gradientUnits="userSpaceOnUse">
<stop stop-color="#0871F9"/>
<stop offset="1" stop-color="#F908AB"/>
</linearGradient>
<linearGradient id="paint54_linear_2052_1426" x1="433.409" y1="369.318" x2="126.335" y2="158.839" gradientUnits="userSpaceOnUse">
<stop stop-color="#0871F9"/>
<stop offset="1" stop-color="#F908AB"/>
</linearGradient>
<linearGradient id="paint55_linear_2052_1426" x1="433.409" y1="369.318" x2="126.335" y2="158.839" gradientUnits="userSpaceOnUse">
<stop stop-color="#0871F9"/>
<stop offset="1" stop-color="#F908AB"/>
</linearGradient>
<linearGradient id="paint56_linear_2052_1426" x1="433.409" y1="369.318" x2="126.335" y2="158.839" gradientUnits="userSpaceOnUse">
<stop stop-color="#0871F9"/>
<stop offset="1" stop-color="#F908AB"/>
</linearGradient>
<linearGradient id="paint57_linear_2052_1426" x1="433.409" y1="369.318" x2="126.335" y2="158.839" gradientUnits="userSpaceOnUse">
<stop stop-color="#0871F9"/>
<stop offset="1" stop-color="#F908AB"/>
</linearGradient>
<linearGradient id="paint58_linear_2052_1426" x1="433.409" y1="369.318" x2="126.335" y2="158.839" gradientUnits="userSpaceOnUse">
<stop stop-color="#0871F9"/>
<stop offset="1" stop-color="#F908AB"/>
</linearGradient>
<linearGradient id="paint59_linear_2052_1426" x1="433.409" y1="369.318" x2="126.335" y2="158.839" gradientUnits="userSpaceOnUse">
<stop stop-color="#0871F9"/>
<stop offset="1" stop-color="#F908AB"/>
</linearGradient>
<linearGradient id="paint60_linear_2052_1426" x1="564.14" y1="-135.15" x2="535.396" y2="236.024" gradientUnits="userSpaceOnUse">
<stop stop-color="#0871F9"/>
<stop offset="1" stop-color="#F908AB"/>
</linearGradient>
<linearGradient id="paint61_linear_2052_1426" x1="564.14" y1="-135.15" x2="535.396" y2="236.024" gradientUnits="userSpaceOnUse">
<stop stop-color="#0871F9"/>
<stop offset="1" stop-color="#F908AB"/>
</linearGradient>
<linearGradient id="paint62_linear_2052_1426" x1="564.14" y1="-135.15" x2="535.396" y2="236.024" gradientUnits="userSpaceOnUse">
<stop stop-color="#0871F9"/>
<stop offset="1" stop-color="#F908AB"/>
</linearGradient>
<linearGradient id="paint63_linear_2052_1426" x1="564.14" y1="-135.15" x2="535.396" y2="236.024" gradientUnits="userSpaceOnUse">
<stop stop-color="#0871F9"/>
<stop offset="1" stop-color="#F908AB"/>
</linearGradient>
<linearGradient id="paint64_linear_2052_1426" x1="564.14" y1="-135.15" x2="535.396" y2="236.024" gradientUnits="userSpaceOnUse">
<stop stop-color="#0871F9"/>
<stop offset="1" stop-color="#F908AB"/>
</linearGradient>
<linearGradient id="paint65_linear_2052_1426" x1="564.14" y1="-135.15" x2="535.396" y2="236.024" gradientUnits="userSpaceOnUse">
<stop stop-color="#0871F9"/>
<stop offset="1" stop-color="#F908AB"/>
</linearGradient>
<linearGradient id="paint66_linear_2052_1426" x1="564.14" y1="-135.15" x2="535.396" y2="236.024" gradientUnits="userSpaceOnUse">
<stop stop-color="#0871F9"/>
<stop offset="1" stop-color="#F908AB"/>
</linearGradient>
<linearGradient id="paint67_linear_2052_1426" x1="564.14" y1="-135.15" x2="535.396" y2="236.024" gradientUnits="userSpaceOnUse">
<stop stop-color="#0871F9"/>
<stop offset="1" stop-color="#F908AB"/>
</linearGradient>
<linearGradient id="paint68_linear_2052_1426" x1="564.14" y1="-135.15" x2="535.396" y2="236.024" gradientUnits="userSpaceOnUse">
<stop stop-color="#0871F9"/>
<stop offset="1" stop-color="#F908AB"/>
</linearGradient>
<linearGradient id="paint69_linear_2052_1426" x1="564.14" y1="-135.15" x2="535.396" y2="236.024" gradientUnits="userSpaceOnUse">
<stop stop-color="#0871F9"/>
<stop offset="1" stop-color="#F908AB"/>
</linearGradient>
<linearGradient id="paint70_linear_2052_1426" x1="564.14" y1="-135.15" x2="535.396" y2="236.024" gradientUnits="userSpaceOnUse">
<stop stop-color="#0871F9"/>
<stop offset="1" stop-color="#F908AB"/>
</linearGradient>
<linearGradient id="paint71_linear_2052_1426" x1="564.14" y1="-135.15" x2="535.396" y2="236.024" gradientUnits="userSpaceOnUse">
<stop stop-color="#0871F9"/>
<stop offset="1" stop-color="#F908AB"/>
</linearGradient>
</defs>
</svg>
