<svg width="1926" height="1090" viewBox="0 0 1926 1090" fill="none" xmlns="http://www.w3.org/2000/svg">
<g clip-path="url(#clip0_2044_547)">
<path d="M1014.91 551.055L1123.25 568.465L1069.08 539.701L1014.91 551.055Z" fill="#B600E9" stroke="#B600E9"/>
<path d="M1014.91 551.055L996.103 654L1123.25 568.465L1014.91 551.055Z" fill="#B300E9" stroke="#B300E9"/>
<path d="M996.103 654L1060.8 710.014L1123.25 568.465L996.103 654Z" fill="#AE00EB" stroke="#AE00EB"/>
<path d="M1221.81 554.083L1204.5 551.812L1123.25 568.465L1221.81 554.083Z" fill="#B400E9" stroke="#B400E9"/>
<path d="M1123.25 568.465L1204.5 551.812L1069.08 539.701L1123.25 568.465Z" fill="#B500E9" stroke="#B500E9"/>
<path d="M1014.91 551.055L910.336 650.972L996.103 654L1014.91 551.055Z" fill="#B100EA" stroke="#B100EA"/>
<path d="M996.103 654L903.565 779.653L1060.8 710.014L996.103 654Z" fill="#A800EC" stroke="#A800EC"/>
<path d="M1231.59 683.521L1221.81 554.083L1123.25 568.465L1231.59 683.521Z" fill="#B000EA" stroke="#B000EA"/>
<path d="M1182.68 722.125L1231.59 683.521L1123.25 568.465L1182.68 722.125Z" fill="#AB00EB" stroke="#AB00EB"/>
<path d="M1146.57 366.361L1069.08 401.937V539.701L1146.57 366.361Z" fill="#C000E6" stroke="#C000E6"/>
<path d="M1069.08 539.701V401.938L1014.91 551.056L1069.08 539.701Z" fill="#BB00E7" stroke="#BB00E7"/>
<path d="M1014.91 551.055L847.891 603.285L910.336 650.972L1014.91 551.055Z" fill="#B300E9" stroke="#B300E9"/>
<path d="M1060.8 710.014L1182.68 722.125L1123.25 568.465L1060.8 710.014Z" fill="#AB00EC" stroke="#AB00EC"/>
<path d="M971.276 412.535L910.336 468.549L1014.91 551.055L971.276 412.535Z" fill="#BD00E6" stroke="#BD00E6"/>
<path d="M1069.08 401.938L971.276 412.535L1014.91 551.056L1069.08 401.938Z" fill="#BF00E6" stroke="#BF00E6"/>
<path d="M1058.55 802.361L1142.81 775.111L1060.8 710.014L1058.55 802.361Z" fill="#A200EE" stroke="#A200EE"/>
<path d="M1060.8 710.014L1142.81 775.111L1182.68 722.125L1060.8 710.014Z" fill="#A400ED" stroke="#A400ED"/>
<path d="M910.336 468.549L847.891 603.285L1014.91 551.056L910.336 468.549Z" fill="#B800E8" stroke="#B800E8"/>
<path d="M903.565 779.653L1058.55 802.361L1060.8 710.014L903.565 779.653Z" fill="#A300EE" stroke="#A300EE"/>
<path d="M844.882 709.257L903.565 779.653L910.336 650.972L844.882 709.257Z" fill="#AA00EC" stroke="#AA00EC"/>
<path d="M910.336 650.972L903.565 779.653L996.103 654L910.336 650.972Z" fill="#AB00EC" stroke="#AB00EC"/>
<path d="M1265.44 392.097L1146.57 366.361L1204.5 551.812L1265.44 392.097Z" fill="#BF00E6" stroke="#BF00E6"/>
<path d="M1204.5 551.812L1146.57 366.361L1069.08 539.701L1204.5 551.812Z" fill="#BB00E7" stroke="#BB00E7"/>
<path d="M1069.08 401.938L980.304 321.701L971.276 412.535L1069.08 401.938Z" fill="#C500E4" stroke="#C500E4"/>
<path d="M847.891 603.285L844.882 709.257L910.336 650.972L847.891 603.285Z" fill="#AF00EA" stroke="#AF00EA"/>
<path d="M1142.81 775.111L1242.87 779.653L1182.68 722.125L1142.81 775.111Z" fill="#A100EE" stroke="#A100EE"/>
<path d="M1182.68 722.125L1242.87 779.653L1231.59 683.521L1182.68 722.125Z" fill="#A400ED" stroke="#A400ED"/>
<path d="M1231.59 683.521L1314.34 551.812L1221.81 554.083L1231.59 683.521Z" fill="#B000EA" stroke="#B000EA"/>
<path d="M1119.49 896.979L1242.87 779.653L1142.81 775.111L1119.49 896.979Z" fill="#9C00EF" stroke="#9C00EF"/>
<path d="M1394.85 649.458L1314.34 551.812L1231.59 683.521L1394.85 649.458Z" fill="#AD00EB" stroke="#AD00EB"/>
<path d="M1221.81 554.083L1314.34 551.812H1204.5L1221.81 554.083Z" fill="#B400E9" stroke="#B400E9"/>
<path d="M813.284 449.625L772.657 552.569L910.336 468.549L813.284 449.625Z" fill="#BD00E6" stroke="#BD00E6"/>
<path d="M910.336 468.549L772.657 552.569L847.891 603.285L910.336 468.549Z" fill="#B900E8" stroke="#B900E8"/>
<path d="M847.891 603.285L726.012 691.847L844.882 709.257L847.891 603.285Z" fill="#AF00EB" stroke="#AF00EB"/>
<path d="M1314.34 551.812L1265.44 392.097L1204.5 551.812H1314.34Z" fill="#B900E8" stroke="#B900E8"/>
<path d="M982.561 940.125L1031.46 879.569L903.565 779.653L982.561 940.125Z" fill="#9A00F0" stroke="#9A00F0"/>
<path d="M903.565 779.653L1031.46 879.569L1058.55 802.361L903.565 779.653Z" fill="#9E00EF" stroke="#9E00EF"/>
<path d="M1058.55 802.361L1119.49 896.979L1142.81 775.111L1058.55 802.361Z" fill="#9C00EF" stroke="#9C00EF"/>
<path d="M790.713 338.354L813.284 449.625L910.336 468.549L790.713 338.354Z" fill="#C300E4" stroke="#C300E4"/>
<path d="M1031.46 879.569L1119.49 896.979L1058.55 802.361L1031.46 879.569Z" fill="#9900F0" stroke="#9900F0"/>
<path d="M1014.91 255.09L980.304 321.701L1069.08 401.938L1014.91 255.09Z" fill="#C900E2" stroke="#C900E2"/>
<path d="M971.276 412.535L790.713 338.354L910.336 468.549L971.276 412.535Z" fill="#C400E4" stroke="#C400E4"/>
<path d="M1014.91 255.09L1069.08 401.938L1146.57 366.361L1014.91 255.09Z" fill="#C800E3" stroke="#C800E3"/>
<path d="M726.012 691.847L814.788 769.812L844.882 709.257L726.012 691.847Z" fill="#AA00EC" stroke="#AA00EC"/>
<path d="M844.882 709.257L814.788 769.812L903.565 779.653L844.882 709.257Z" fill="#A600ED" stroke="#A600ED"/>
<path d="M1430.96 578.306L1346.7 469.306L1314.34 551.813L1430.96 578.306Z" fill="#B500E9" stroke="#B500E9"/>
<path d="M1314.34 551.812L1346.7 469.305L1265.44 392.097L1314.34 551.812Z" fill="#BB00E7" stroke="#BB00E7"/>
<path d="M1229.33 265.688L1146.57 366.361L1265.44 392.097L1229.33 265.688Z" fill="#C700E3" stroke="#C700E3"/>
<path d="M1229.33 265.688L1159.36 294.451L1146.57 366.361L1229.33 265.688Z" fill="#C900E2" stroke="#C900E2"/>
<path d="M688.394 545.757L715.479 576.792L772.657 552.569L688.394 545.757Z" fill="#B900E8" stroke="#B900E8"/>
<path d="M772.657 552.569L715.479 576.792L847.891 603.285L772.657 552.569Z" fill="#B700E8" stroke="#B700E8"/>
<path d="M1159.36 294.451L1014.91 255.09L1146.57 366.361L1159.36 294.451Z" fill="#CA00E2" stroke="#CA00E2"/>
<path d="M790.713 338.354L760.62 409.507L813.284 449.625L790.713 338.354Z" fill="#C500E4" stroke="#C500E4"/>
<path d="M1389.58 819.014L1373.03 718.34L1242.87 779.653L1389.58 819.014Z" fill="#9E00EF" stroke="#9E00EF"/>
<path d="M1242.87 779.653L1373.03 718.34L1231.59 683.521L1242.87 779.653Z" fill="#A300ED" stroke="#A300ED"/>
<path d="M790.713 338.354L971.276 412.535L980.304 321.701L790.713 338.354Z" fill="#C700E3" stroke="#C700E3"/>
<path d="M813.284 449.625L760.62 409.507L772.657 552.569L813.284 449.625Z" fill="#BF00E6" stroke="#BF00E6"/>
<path d="M1373.03 718.34L1394.85 649.458L1231.59 683.521L1373.03 718.34Z" fill="#A700ED" stroke="#A700ED"/>
<path d="M715.479 576.792L726.012 691.847L847.891 603.285L715.479 576.792Z" fill="#B300E9" stroke="#B300E9"/>
<path d="M834.349 896.979L982.561 940.125L903.565 779.653L834.349 896.979Z" fill="#9B00F0" stroke="#9B00F0"/>
<path d="M1031.46 879.569L1069.83 1033.99L1119.49 896.979L1031.46 879.569Z" fill="#9200F2" stroke="#9200F2"/>
<path d="M834.349 896.979L903.565 779.653L814.788 769.812L834.349 896.979Z" fill="#A100EE" stroke="#A100EE"/>
<path d="M1416.66 363.333L1327.89 379.229L1346.7 469.305L1416.66 363.333Z" fill="#C000E5" stroke="#C000E5"/>
<path d="M1346.7 469.306L1327.89 379.229L1265.44 392.097L1346.7 469.306Z" fill="#C000E5" stroke="#C000E5"/>
<path d="M771.905 334.569L790.713 338.354V224.812L771.905 334.569Z" fill="#CD00E1" stroke="#CD00E1"/>
<path d="M1151.84 179.396L1094.66 235.41L1159.36 294.451L1151.84 179.396Z" fill="#D000E0" stroke="#D000E0"/>
<path d="M1159.36 294.451L1094.66 235.41L1014.91 255.09L1159.36 294.451Z" fill="#CE00E1" stroke="#CE00E1"/>
<path d="M790.713 224.812V338.354L866.7 202.104L790.713 224.812Z" fill="#D000E0" stroke="#D000E0"/>
<path d="M1478.36 532.889L1430.96 578.306L1571.65 603.285L1478.36 532.889Z" fill="#B000EA" stroke="#B000EA"/>
<path d="M1394.85 649.458L1430.96 578.306L1314.34 551.812L1394.85 649.458Z" fill="#AF00EA" stroke="#AF00EA"/>
<path d="M1327.89 379.229L1229.33 265.688L1265.44 392.097L1327.89 379.229Z" fill="#C600E4" stroke="#C600E4"/>
<path d="M718.488 868.215L834.349 896.979L814.788 769.812L718.488 868.215Z" fill="#9F00EE" stroke="#9F00EE"/>
<path d="M760.619 409.507L688.394 545.757L772.657 552.569L760.619 409.507Z" fill="#BD00E6" stroke="#BD00E6"/>
<path d="M715.479 576.792L626.702 579.062L726.012 691.847L715.479 576.792Z" fill="#B500E9" stroke="#B500E9"/>
<path d="M561.249 414.805L688.395 545.757L760.62 409.507L561.249 414.805Z" fill="#C200E5" stroke="#C200E5"/>
<path d="M643.254 822.799L710.212 787.979L726.012 691.847L643.254 822.799Z" fill="#A800EC" stroke="#A800EC"/>
<path d="M726.012 691.847L710.213 787.979L814.788 769.812L726.012 691.847Z" fill="#A800EC" stroke="#A800EC"/>
<path d="M1281.24 929.528L1242.87 779.653L1119.49 896.979L1281.24 929.528Z" fill="#9600F1" stroke="#9600F1"/>
<path d="M1361.74 921.958L1389.58 819.014L1242.87 779.653L1361.74 921.958Z" fill="#9700F0" stroke="#9700F0"/>
<path d="M1373.03 718.34L1515.97 740.292L1394.85 649.458L1373.03 718.34Z" fill="#A400ED" stroke="#A400ED"/>
<path d="M959.238 201.347L980.304 321.701L1014.91 255.09L959.238 201.347Z" fill="#CF00E1" stroke="#CF00E1"/>
<path d="M790.713 338.354L771.905 334.57L760.62 409.507L790.713 338.354Z" fill="#C800E3" stroke="#C800E3"/>
<path d="M1184.19 1047.61L1281.24 929.528L1119.49 896.979L1184.19 1047.61Z" fill="#8D02F2" stroke="#8D02F2"/>
<path d="M1094.66 235.41L959.238 201.347L1014.91 255.09L1094.66 235.41Z" fill="#D100E0" stroke="#D100E0"/>
<path d="M961.495 1030.96L1069.83 1033.99L982.561 940.125L961.495 1030.96Z" fill="#8D02F3" stroke="#8D02F3"/>
<path d="M982.561 940.125L1069.83 1033.99L1031.46 879.569L982.561 940.125Z" fill="#9100F2" stroke="#9100F2"/>
<path d="M1281.24 929.528L1361.74 921.958L1242.87 779.653L1281.24 929.528Z" fill="#9400F1" stroke="#9400F1"/>
<path d="M1537.04 665.354L1430.96 578.306L1394.85 649.458L1537.04 665.354Z" fill="#AB00EC" stroke="#AB00EC"/>
<path d="M569.524 624.479L626.702 579.062L483.005 542.729L569.524 624.479Z" fill="#B900E8" stroke="#B900E8"/>
<path d="M688.395 545.757L626.702 579.062L715.479 576.792L688.395 545.757Z" fill="#B900E8" stroke="#B900E8"/>
<path d="M1416.66 363.333L1341.43 282.34L1327.89 379.229L1416.66 363.333Z" fill="#C600E4" stroke="#C600E4"/>
<path d="M1327.89 379.229L1341.43 282.34L1229.33 265.688L1327.89 379.229Z" fill="#C900E3" stroke="#C900E3"/>
<path d="M1229.33 265.687L1151.84 179.396L1159.36 294.451L1229.33 265.687Z" fill="#CE00E1" stroke="#CE00E1"/>
<path d="M1267.7 211.944L1151.84 179.396L1229.33 265.687L1267.7 211.944Z" fill="#D000E0" stroke="#D000E0"/>
<path d="M1094.66 235.41L996.855 115.056L959.238 201.347L1094.66 235.41Z" fill="#D400DF" stroke="#D400DF"/>
<path d="M834.349 896.979L961.495 1030.96L982.561 940.125L834.349 896.979Z" fill="#9300F1" stroke="#9300F1"/>
<path d="M1515.97 740.292L1373.03 718.34L1389.58 819.014L1515.97 740.292Z" fill="#9E00EF" stroke="#9E00EF"/>
<path d="M1430.96 578.306L1478.36 532.889L1346.7 469.306L1430.96 578.306Z" fill="#B500E9" stroke="#B500E9"/>
<path d="M1478.36 532.889L1416.66 363.333L1346.7 469.305L1478.36 532.889Z" fill="#BC00E7" stroke="#BC00E7"/>
<path d="M866.7 202.104L790.713 338.354L980.304 321.701L866.7 202.104Z" fill="#CD00E1" stroke="#CD00E1"/>
<path d="M561.249 414.805L626.702 579.062L688.395 545.757L561.249 414.805Z" fill="#BE00E6" stroke="#BE00E6"/>
<path d="M959.238 201.347L866.7 202.104L980.304 321.701L959.238 201.347Z" fill="#D000E0" stroke="#D000E0"/>
<path d="M883.252 109L866.7 202.104L959.238 201.347L883.252 109Z" fill="#D600DE" stroke="#D600DE"/>
<path d="M1341.43 282.34L1267.7 211.944L1229.33 265.687L1341.43 282.34Z" fill="#CD00E1" stroke="#CD00E1"/>
<path d="M643.254 822.799L718.488 868.215L710.212 787.979L643.254 822.799Z" fill="#A300EE" stroke="#A300EE"/>
<path d="M710.213 787.979L718.488 868.215L814.788 769.812L710.213 787.979Z" fill="#A300EE" stroke="#A300EE"/>
<path d="M834.349 896.979L873.471 1046.85L961.495 1030.96L834.349 896.979Z" fill="#9000F2" stroke="#9000F2"/>
<path d="M1281.24 929.528L1335.41 984.028L1361.74 921.958L1281.24 929.528Z" fill="#8C03F3" stroke="#8C03F3"/>
<path d="M1262.43 1046.85L1335.41 984.028L1281.24 929.528L1262.43 1046.85Z" fill="#8806F3" stroke="#8806F3"/>
<path d="M1114.97 1059.72L1184.19 1047.61L1069.83 1033.99L1114.97 1059.72Z" fill="#8608F4" stroke="#8608F4"/>
<path d="M1069.83 1033.99L1184.19 1047.61L1119.49 896.979L1069.83 1033.99Z" fill="#8B03F3" stroke="#8B03F3"/>
<path d="M592.847 664.597L643.254 822.799L726.012 691.847L592.847 664.597Z" fill="#AC00EB" stroke="#AC00EB"/>
<path d="M569.524 624.479L592.847 664.597L626.702 579.062L569.524 624.479Z" fill="#B500E9" stroke="#B500E9"/>
<path d="M626.702 579.062L592.847 664.597L726.012 691.847L626.702 579.062Z" fill="#B300E9" stroke="#B300E9"/>
<path d="M1528.01 852.319L1389.58 819.014L1472.34 921.201L1528.01 852.319Z" fill="#9300F1" stroke="#9300F1"/>
<path d="M1528.01 852.319L1515.97 740.292L1389.58 819.014L1528.01 852.319Z" fill="#9900F0" stroke="#9900F0"/>
<path d="M1515.97 740.292L1537.04 665.354L1394.85 649.458L1515.97 740.292Z" fill="#A500ED" stroke="#A500ED"/>
<path d="M1056.29 91.5903L1094.66 235.41L1151.84 179.396L1056.29 91.5903Z" fill="#D500DE" stroke="#D500DE"/>
<path d="M1056.29 91.5903L996.855 115.056L1094.66 235.41L1056.29 91.5903Z" fill="#D700DE" stroke="#D700DE"/>
<path d="M1051.02 1120.28L1114.97 1059.72L1069.83 1033.99L1051.02 1120.28Z" fill="#8509F4" stroke="#8509F4"/>
<path d="M1266.95 1121.03L1262.43 1046.85L1184.19 1047.61L1266.95 1121.03Z" fill="#810CF5" stroke="#810CF5"/>
<path d="M1184.19 1047.61L1262.43 1046.85L1281.24 929.528L1184.19 1047.61Z" fill="#8707F4" stroke="#8707F4"/>
<path d="M794.475 1064.26L873.471 1046.85L834.349 896.979L794.475 1064.26Z" fill="#9100F2" stroke="#9100F2"/>
<path d="M961.495 1030.96L1051.02 1120.28L1069.83 1033.99L961.495 1030.96Z" fill="#8707F4" stroke="#8707F4"/>
<path d="M1267.7 211.944L1180.43 112.785L1151.84 179.396L1267.7 211.944Z" fill="#D400DF" stroke="#D400DF"/>
<path d="M561.249 414.806L760.62 409.507L601.875 333.056L561.249 414.806Z" fill="#C800E3" stroke="#C800E3"/>
<path d="M592.847 664.597L554.477 731.208L643.254 822.799L592.847 664.597Z" fill="#AC00EB" stroke="#AC00EB"/>
<path d="M1585.94 305.805L1430.96 274.771L1416.66 363.333L1585.94 305.805Z" fill="#C700E3" stroke="#C700E3"/>
<path d="M1416.66 363.333L1430.96 274.771L1341.43 282.34L1416.66 363.333Z" fill="#C800E3" stroke="#C800E3"/>
<path d="M1341.43 282.34L1312.84 162.743L1267.7 211.945L1341.43 282.34Z" fill="#D000E0" stroke="#D000E0"/>
<path d="M1267.7 211.945L1230.08 79.4792L1180.43 112.785L1267.7 211.945Z" fill="#D700DE" stroke="#D700DE"/>
<path d="M1583.68 399.667L1416.66 363.333L1478.36 532.889L1583.68 399.667Z" fill="#BD00E6" stroke="#BD00E6"/>
<path d="M992.341 1157.37L1051.02 1120.28L961.495 1030.96L992.341 1157.37Z" fill="#8409F4" stroke="#8409F4"/>
<path d="M1106.7 1189.92L1266.95 1121.03L1184.19 1047.61L1106.7 1189.92Z" fill="#7D0EF5" stroke="#7D0EF5"/>
<path d="M1629.58 663.083L1571.65 603.285L1537.04 665.354L1629.58 663.083Z" fill="#A900EC" stroke="#A900EC"/>
<path d="M1537.04 665.354L1571.65 603.285L1430.96 578.306L1537.04 665.354Z" fill="#AC00EB" stroke="#AC00EB"/>
<path d="M1180.43 112.785L1056.29 91.5903L1151.84 179.396L1180.43 112.785Z" fill="#D800DD" stroke="#D800DD"/>
<path d="M996.856 115.056L883.252 109L959.238 201.347L996.856 115.056Z" fill="#D800DD" stroke="#D800DD"/>
<path d="M866.7 202.104L744.068 177.125L790.713 224.813L866.7 202.104Z" fill="#D400DF" stroke="#D400DF"/>
<path d="M958.486 -31.0347L883.252 109L996.856 115.056L958.486 -31.0347Z" fill="#DD00DB" stroke="#DD00DB"/>
<path d="M673.348 956.778L706.451 989.326L718.488 868.215L673.348 956.778Z" fill="#9900F0" stroke="#9900F0"/>
<path d="M718.488 868.215L706.451 989.326L834.349 896.979L718.488 868.215Z" fill="#9A00F0" stroke="#9A00F0"/>
<path d="M673.348 956.778L718.488 868.215L643.254 822.799L673.348 956.778Z" fill="#9E00EF" stroke="#9E00EF"/>
<path d="M540.183 900.007L673.348 956.778L643.254 822.799L540.183 900.007Z" fill="#9E00EF" stroke="#9E00EF"/>
<path d="M1430.96 274.771L1312.84 162.743L1341.43 282.34L1430.96 274.771Z" fill="#CE00E1" stroke="#CE00E1"/>
<path d="M569.524 624.479L554.477 731.208L592.847 664.597L569.524 624.479Z" fill="#B100EA" stroke="#B100EA"/>
<path d="M1472.34 921.201L1361.74 921.958L1427.95 981.757L1472.34 921.201Z" fill="#8B04F3" stroke="#8B04F3"/>
<path d="M1472.34 921.201L1389.58 819.014L1361.74 921.958L1472.34 921.201Z" fill="#9100F2" stroke="#9100F2"/>
<path d="M1515.97 740.292L1629.58 663.083L1537.04 665.354L1515.97 740.292Z" fill="#A400ED" stroke="#A400ED"/>
<path d="M1427.95 981.757L1361.74 921.958L1335.41 984.028L1427.95 981.757Z" fill="#8A05F3" stroke="#8A05F3"/>
<path d="M1571.65 603.285L1576.16 516.993L1478.36 532.889L1571.65 603.285Z" fill="#B200EA" stroke="#B200EA"/>
<path d="M643.254 284.611L771.905 334.569L790.713 224.812L643.254 284.611Z" fill="#CF00E1" stroke="#CF00E1"/>
<path d="M601.875 333.056L760.619 409.507L771.905 334.57L601.875 333.056Z" fill="#C900E2" stroke="#C900E2"/>
<path d="M461.187 719.854L509.337 777.382L554.477 731.208L461.187 719.854Z" fill="#AD00EB" stroke="#AD00EB"/>
<path d="M745.573 106.729L744.068 177.125L866.7 202.104L745.573 106.729Z" fill="#D700DD" stroke="#D700DD"/>
<path d="M643.254 284.611L601.875 333.056L771.905 334.569L643.254 284.611Z" fill="#CD00E1" stroke="#CD00E1"/>
<path d="M744.068 177.125L643.254 284.611L790.713 224.813L744.068 177.125Z" fill="#D300DF" stroke="#D300DF"/>
<path d="M706.451 989.326L794.475 1064.26L834.349 896.979L706.451 989.326Z" fill="#9400F1" stroke="#9400F1"/>
<path d="M873.471 1046.85L992.341 1157.37L961.495 1030.96L873.471 1046.85Z" fill="#8806F4" stroke="#8806F4"/>
<path d="M727.517 1117.25L794.475 1064.26L706.451 989.326L727.517 1117.25Z" fill="#8E01F2" stroke="#8E01F2"/>
<path d="M1440.74 1089.24L1335.41 984.028L1262.43 1046.85L1440.74 1089.24Z" fill="#820BF5" stroke="#820BF5"/>
<path d="M1440.74 1089.24L1427.95 981.757L1335.41 984.028L1440.74 1089.24Z" fill="#830AF4" stroke="#830AF4"/>
<path d="M1569.39 915.146L1565.63 815.986L1528.01 852.319L1569.39 915.146Z" fill="#9200F1" stroke="#9200F1"/>
<path d="M1576.16 516.993L1583.68 399.667L1478.36 532.889L1576.16 516.993Z" fill="#B800E8" stroke="#B800E8"/>
<path d="M1569.39 915.146L1528.01 852.319L1472.34 921.201L1569.39 915.146Z" fill="#8F01F2" stroke="#8F01F2"/>
<path d="M1528.01 852.319L1565.63 815.986L1515.97 740.292L1528.01 852.319Z" fill="#9900F0" stroke="#9900F0"/>
<path d="M1571.65 603.285L1666.44 616.91L1576.16 516.993L1571.65 603.285Z" fill="#AF00EA" stroke="#AF00EA"/>
<path d="M1312.84 162.743L1230.08 79.4792L1267.7 211.945L1312.84 162.743Z" fill="#D500DE" stroke="#D500DE"/>
<path d="M1124 -37.8473L1034.47 -46.9307L1056.29 91.5902L1124 -37.8473Z" fill="#E100DA" stroke="#E100DA"/>
<path d="M1309.83 40.875L1230.08 79.4792L1312.84 162.743L1309.83 40.875Z" fill="#DA00DD" stroke="#DA00DD"/>
<path d="M1106.7 1189.92L1184.19 1047.61L1114.97 1059.72L1106.7 1189.92Z" fill="#810CF5" stroke="#810CF5"/>
<path d="M1051.02 1120.28L1106.7 1189.92L1114.97 1059.72L1051.02 1120.28Z" fill="#800CF5" stroke="#800CF5"/>
<path d="M1565.63 815.986L1629.58 663.083L1515.97 740.292L1565.63 815.986Z" fill="#9F00EF" stroke="#9F00EF"/>
<path d="M1710.08 433.729L1585.94 305.806L1583.68 399.667L1710.08 433.729Z" fill="#C100E5" stroke="#C100E5"/>
<path d="M1585.94 305.805L1486.63 211.944L1430.96 274.771L1585.94 305.805Z" fill="#CB00E2" stroke="#CB00E2"/>
<path d="M1430.96 274.771L1486.63 211.945L1312.84 162.743L1430.96 274.771Z" fill="#D000E0" stroke="#D000E0"/>
<path d="M461.187 719.854L554.477 731.208L569.524 624.479L461.187 719.854Z" fill="#B000EA" stroke="#B000EA"/>
<path d="M554.477 731.208L509.337 777.382L643.254 822.799L554.477 731.208Z" fill="#A900EC" stroke="#A900EC"/>
<path d="M443.883 419.347L497.299 464.764L561.248 414.805L443.883 419.347Z" fill="#C500E4" stroke="#C500E4"/>
<path d="M561.249 414.805L497.299 464.764L626.702 579.062L561.249 414.805Z" fill="#C100E5" stroke="#C100E5"/>
<path d="M539.431 321.701L561.249 414.806L601.875 333.056L539.431 321.701Z" fill="#CB00E2" stroke="#CB00E2"/>
<path d="M643.254 284.611L539.431 321.701L601.875 333.056L643.254 284.611Z" fill="#CE00E1" stroke="#CE00E1"/>
<path d="M509.337 165.014L539.431 321.701L643.254 284.611L509.337 165.014Z" fill="#D200DF" stroke="#D200DF"/>
<path d="M755.353 -8.32636L745.573 106.729L817.798 -59.7986L755.353 -8.32636Z" fill="#E200D9" stroke="#E200D9"/>
<path d="M883.252 109L745.573 106.729L866.7 202.104L883.252 109Z" fill="#D900DD" stroke="#D900DD"/>
<path d="M744.068 177.125L613.913 162.743L643.254 284.611L744.068 177.125Z" fill="#D500DE" stroke="#D500DE"/>
<path d="M958.486 -31.0347L996.856 115.056L1056.29 91.5903L958.486 -31.0347Z" fill="#DE00DB" stroke="#DE00DB"/>
<path d="M497.299 464.764L483.005 542.729L626.702 579.063L497.299 464.764Z" fill="#BD00E6" stroke="#BD00E6"/>
<path d="M540.183 900.007L634.978 1006.74L673.348 956.778L540.183 900.007Z" fill="#9900F0" stroke="#9900F0"/>
<path d="M673.348 956.778L634.978 1006.74L706.451 989.326L673.348 956.778Z" fill="#9600F1" stroke="#9600F1"/>
<path d="M992.341 1157.37L873.471 1046.85L841.12 1227.76L992.341 1157.37Z" fill="#830AF4" stroke="#830AF4"/>
<path d="M1583.68 399.667L1585.94 305.806L1416.66 363.333L1583.68 399.667Z" fill="#C400E4" stroke="#C400E4"/>
<path d="M1710.08 433.729L1583.68 399.667L1576.16 516.993L1710.08 433.729Z" fill="#BB00E7" stroke="#BB00E7"/>
<path d="M634.978 1006.74L727.517 1117.25L706.451 989.326L634.978 1006.74Z" fill="#9100F2" stroke="#9100F2"/>
<path d="M509.337 777.382L540.183 900.007L643.254 822.799L509.337 777.382Z" fill="#A400ED" stroke="#A400ED"/>
<path d="M1429.45 44.6597L1309.83 40.875L1312.84 162.743L1429.45 44.6597Z" fill="#DA00DC" stroke="#DA00DC"/>
<path d="M1034.47 -46.9307L958.486 -31.0348L1056.29 91.5902L1034.47 -46.9307Z" fill="#E100DA" stroke="#E100DA"/>
<path d="M1429.45 44.6597L1312.84 162.743L1486.63 211.944L1429.45 44.6597Z" fill="#D600DE" stroke="#D600DE"/>
<path d="M320.499 609.34L446.14 629.778L483.005 542.729L320.499 609.34Z" fill="#BA00E7" stroke="#BA00E7"/>
<path d="M483.005 542.729L446.14 629.778L569.524 624.479L483.005 542.729Z" fill="#B800E8" stroke="#B800E8"/>
<path d="M509.337 777.382L462.691 846.264L540.183 900.007L509.337 777.382Z" fill="#A500ED" stroke="#A500ED"/>
<path d="M1427.95 981.757L1543.81 979.486L1472.34 921.201L1427.95 981.757Z" fill="#8806F4" stroke="#8806F4"/>
<path d="M1565.63 815.986L1664.94 787.222L1629.58 663.083L1565.63 815.986Z" fill="#9D00EF" stroke="#9D00EF"/>
<path d="M1440.74 1089.24L1543.81 979.486L1427.95 981.757L1440.74 1089.24Z" fill="#820BF5" stroke="#820BF5"/>
<path d="M1376.04 1151.31L1262.43 1046.85L1266.95 1121.03L1376.04 1151.31Z" fill="#7C0FF6" stroke="#7C0FF6"/>
<path d="M1376.04 1151.31L1440.74 1089.24L1262.43 1046.85L1376.04 1151.31Z" fill="#7B0FF6" stroke="#7B0FF6"/>
<path d="M1543.81 979.486L1569.39 915.146L1472.34 921.202L1543.81 979.486Z" fill="#8A05F3" stroke="#8A05F3"/>
<path d="M1783.81 736.507L1666.44 616.91L1629.58 663.083L1783.81 736.507Z" fill="#A500ED" stroke="#A500ED"/>
<path d="M1629.58 663.083L1666.44 616.91L1571.65 603.285L1629.58 663.083Z" fill="#AA00EC" stroke="#AA00EC"/>
<path d="M446.14 629.778L461.187 719.854L569.524 624.479L446.14 629.778Z" fill="#B400E9" stroke="#B400E9"/>
<path d="M644.006 95.375L613.913 162.743L744.068 177.125L644.006 95.375Z" fill="#D900DD" stroke="#D900DD"/>
<path d="M539.43 321.701L443.883 419.347L561.248 414.806L539.43 321.701Z" fill="#C900E3" stroke="#C900E3"/>
<path d="M1569.39 915.146L1664.94 787.222L1565.63 815.986L1569.39 915.146Z" fill="#9400F1" stroke="#9400F1"/>
<path d="M1056.29 91.5903L1180.43 112.785L1124 -37.8472L1056.29 91.5903Z" fill="#DD00DB" stroke="#DD00DB"/>
<path d="M745.573 106.729L644.006 95.375L744.068 177.125L745.573 106.729Z" fill="#DA00DC" stroke="#DA00DC"/>
<path d="M395.733 261.903L443.883 419.347L539.431 321.701L395.733 261.903Z" fill="#CD00E1" stroke="#CD00E1"/>
<path d="M497.299 464.764L443.883 419.347L483.005 542.729L497.299 464.764Z" fill="#C200E5" stroke="#C200E5"/>
<path d="M1782.3 501.097L1684.5 504.882L1666.44 616.91L1782.3 501.097Z" fill="#B200EA" stroke="#B200EA"/>
<path d="M1666.44 616.91L1684.5 504.882L1576.16 516.993L1666.44 616.91Z" fill="#B200EA" stroke="#B200EA"/>
<path d="M1124 -37.8472L1180.43 112.785L1230.08 79.4792L1124 -37.8472Z" fill="#DD00DB" stroke="#DD00DB"/>
<path d="M461.187 719.854L462.691 846.264L509.337 777.382L461.187 719.854Z" fill="#AA00EC" stroke="#AA00EC"/>
<path d="M1587.45 1136.93L1658.17 1002.19L1543.81 979.486L1587.45 1136.93Z" fill="#7D0EF6" stroke="#7D0EF6"/>
<path d="M841.12 1227.76L873.471 1046.85L794.475 1064.26L841.12 1227.76Z" fill="#8806F4" stroke="#8806F4"/>
<path d="M1625.81 237.68L1486.63 211.944L1585.94 305.805L1625.81 237.68Z" fill="#CC00E1" stroke="#CC00E1"/>
<path d="M1625.81 237.681L1542.3 156.688L1486.63 211.944L1625.81 237.681Z" fill="#D000E0" stroke="#D000E0"/>
<path d="M1212.03 -59.7986L1124 -37.8472L1230.08 79.4792L1212.03 -59.7986Z" fill="#E100DA" stroke="#E100DA"/>
<path d="M727.516 1117.25L841.12 1227.76L794.475 1064.26L727.516 1117.25Z" fill="#8707F4" stroke="#8707F4"/>
<path d="M663.567 28.0068L644.006 95.3749L745.573 106.729L663.567 28.0068Z" fill="#DE00DB" stroke="#DE00DB"/>
<path d="M613.913 162.743L509.337 165.014L643.254 284.611L613.913 162.743Z" fill="#D600DE" stroke="#D600DE"/>
<path d="M1542.3 156.687L1429.45 44.6597L1486.63 211.944L1542.3 156.687Z" fill="#D500DE" stroke="#D500DE"/>
<path d="M1309.83 40.875L1212.03 -59.7986L1230.08 79.4792L1309.83 40.875Z" fill="#DF00DB" stroke="#DF00DB"/>
<path d="M1782.3 501.097L1710.08 433.729L1684.5 504.882L1782.3 501.097Z" fill="#B800E8" stroke="#B800E8"/>
<path d="M1684.5 504.882L1710.08 433.729L1576.16 516.993L1684.5 504.882Z" fill="#B700E8" stroke="#B700E8"/>
<path d="M1779.29 277.799L1625.81 237.681L1585.94 305.806L1779.29 277.799Z" fill="#CA00E2" stroke="#CA00E2"/>
<path d="M1542.3 156.687L1614.53 46.9305L1429.45 44.6597L1542.3 156.687Z" fill="#D900DD" stroke="#D900DD"/>
<path d="M562.753 1124.82L660.558 1118.01L634.978 1006.74L562.753 1124.82Z" fill="#9000F2" stroke="#9000F2"/>
<path d="M634.978 1006.74L660.558 1118.01L727.517 1117.25L634.978 1006.74Z" fill="#8E01F2" stroke="#8E01F2"/>
<path d="M500.309 977.215L634.978 1006.74L540.183 900.007L500.309 977.215Z" fill="#9A00F0" stroke="#9A00F0"/>
<path d="M1318.86 -66.6111L1212.03 -59.7986L1309.83 40.875L1318.86 -66.6111Z" fill="#E200D9" stroke="#E200D9"/>
<path d="M482.252 950.722L500.309 977.215L540.183 900.007L482.252 950.722Z" fill="#9D00EF" stroke="#9D00EF"/>
<path d="M1587.45 1136.93L1543.81 979.486L1440.74 1089.24L1587.45 1136.93Z" fill="#7B10F6" stroke="#7B10F6"/>
<path d="M489.776 55.2568L509.337 165.014L613.913 162.743L489.776 55.2568Z" fill="#DC00DC" stroke="#DC00DC"/>
<path d="M462.691 846.264L482.252 950.722L540.183 900.007L462.691 846.264Z" fill="#A000EE" stroke="#A000EE"/>
<path d="M500.309 977.215L562.753 1124.82L634.978 1006.74L500.309 977.215Z" fill="#9400F1" stroke="#9400F1"/>
<path d="M275.358 862.917L482.252 950.722L462.692 846.264L275.358 862.917Z" fill="#A300EE" stroke="#A300EE"/>
<path d="M817.798 -59.7986L883.252 109L958.486 -31.0347L817.798 -59.7986Z" fill="#E200D9" stroke="#E200D9"/>
<path d="M817.798 -59.7986L745.573 106.729L883.252 109L817.798 -59.7986Z" fill="#DF00DB" stroke="#DF00DB"/>
<path d="M644.006 95.3749L489.776 55.2568L613.913 162.743L644.006 95.3749Z" fill="#DD00DB" stroke="#DD00DB"/>
<path d="M755.353 -8.32642L663.567 28.0069L745.573 106.729L755.353 -8.32642Z" fill="#E000DA" stroke="#E000DA"/>
<path d="M446.14 629.778L385.2 741.049L461.187 719.854L446.14 629.778Z" fill="#B200EA" stroke="#B200EA"/>
<path d="M461.187 719.854L385.2 741.048L462.691 846.264L461.187 719.854Z" fill="#AC00EB" stroke="#AC00EB"/>
<path d="M320.499 609.34L385.2 741.049L446.14 629.778L320.499 609.34Z" fill="#B500E9" stroke="#B500E9"/>
<path d="M755.353 -8.3265L774.162 -94.6182L663.567 28.0068L755.353 -8.3265Z" fill="#E500D8" stroke="#E500D8"/>
<path d="M1408.39 -89.3193L1318.86 -66.611L1309.83 40.8751L1408.39 -89.3193Z" fill="#E300D9" stroke="#E300D9"/>
<path d="M1444.5 -32.5486L1309.83 40.875L1429.45 44.6598L1444.5 -32.5486Z" fill="#DF00DB" stroke="#DF00DB"/>
<path d="M1543.81 979.486L1658.17 1002.19L1569.39 915.146L1543.81 979.486Z" fill="#8608F4" stroke="#8608F4"/>
<path d="M1694.28 932.555L1719.11 868.972L1664.94 787.222L1694.28 932.555Z" fill="#9000F2" stroke="#9000F2"/>
<path d="M1664.94 787.222L1743.93 783.437L1629.58 663.083L1664.94 787.222Z" fill="#9E00EF" stroke="#9E00EF"/>
<path d="M1587.45 1136.93L1440.74 1089.24L1504.69 1260.31L1587.45 1136.93Z" fill="#7015F8" stroke="#7015F8"/>
<path d="M1719.11 868.972L1743.93 783.438L1664.94 787.222L1719.11 868.972Z" fill="#9600F1" stroke="#9600F1"/>
<path d="M352.097 327L346.831 419.347H443.883L352.097 327Z" fill="#CA00E2" stroke="#CA00E2"/>
<path d="M443.883 419.347H346.831L483.005 542.729L443.883 419.347Z" fill="#C400E4" stroke="#C400E4"/>
<path d="M1694.28 932.555L1664.94 787.222L1569.39 915.146L1694.28 932.555Z" fill="#8F00F2" stroke="#8F00F2"/>
<path d="M1692.77 219.514L1592.71 136.25L1625.82 237.681L1692.77 219.514Z" fill="#D000E0" stroke="#D000E0"/>
<path d="M1625.81 237.681L1592.71 136.25L1542.3 156.688L1625.81 237.681Z" fill="#D200DF" stroke="#D200DF"/>
<path d="M1658.17 1002.19L1694.28 932.556L1569.39 915.146L1658.17 1002.19Z" fill="#8707F4" stroke="#8707F4"/>
<path d="M346.831 419.347L320.499 609.34L483.005 542.729L346.831 419.347Z" fill="#C000E6" stroke="#C000E6"/>
<path d="M1795.84 638.861L1782.3 501.097L1666.44 616.91L1795.84 638.861Z" fill="#AD00EB" stroke="#AD00EB"/>
<path d="M1779.29 277.799L1692.77 219.514L1625.81 237.681L1779.29 277.799Z" fill="#CC00E1" stroke="#CC00E1"/>
<path d="M509.337 165.014L395.733 261.903L539.431 321.701L509.337 165.014Z" fill="#D300DF" stroke="#D300DF"/>
<path d="M414.542 151.389L395.733 261.903L509.337 165.014L414.542 151.389Z" fill="#D800DD" stroke="#D800DD"/>
<path d="M1504.69 1260.31L1440.74 1089.24L1376.04 1151.31L1504.69 1260.31Z" fill="#7114F7" stroke="#7114F7"/>
<path d="M1658.17 1002.19L1744.69 959.806L1694.28 932.556L1658.17 1002.19Z" fill="#8409F4" stroke="#8409F4"/>
<path d="M476.986 1071.08L562.753 1124.82L500.309 977.215L476.986 1071.08Z" fill="#9400F1" stroke="#9400F1"/>
<path d="M476.986 1071.08L500.309 977.215L482.252 950.722L476.986 1071.08Z" fill="#9900F0" stroke="#9900F0"/>
<path d="M315.984 1021.87L476.986 1071.08L482.252 950.722L315.984 1021.87Z" fill="#9900F0" stroke="#9900F0"/>
<path d="M1779.29 277.799L1585.94 305.806L1710.08 433.729L1779.29 277.799Z" fill="#C400E4" stroke="#C400E4"/>
<path d="M395.733 261.903L352.097 327L443.883 419.347L395.733 261.903Z" fill="#CE00E1" stroke="#CE00E1"/>
<path d="M346.831 419.347L287.395 448.111L320.499 609.34L346.831 419.347Z" fill="#C300E5" stroke="#C300E5"/>
<path d="M1521.99 -48.4443L1444.5 -32.5485L1429.45 44.6598L1521.99 -48.4443Z" fill="#E100DA" stroke="#E100DA"/>
<path d="M1892.14 719.854L1783.81 736.507L1876.35 810.687L1892.14 719.854Z" fill="#9B00EF" stroke="#9B00EF"/>
<path d="M1743.93 783.437L1783.81 736.507L1629.58 663.083L1743.93 783.437Z" fill="#9F00EF" stroke="#9F00EF"/>
<path d="M1783.81 736.507L1743.93 783.437L1876.35 810.687L1783.81 736.507Z" fill="#9900F0" stroke="#9900F0"/>
<path d="M1783.81 736.507L1795.84 638.861L1666.44 616.91L1783.81 736.507Z" fill="#A600ED" stroke="#A600ED"/>
<path d="M663.567 28.0068L489.776 55.2568L644.006 95.3749L663.567 28.0068Z" fill="#E000DA" stroke="#E000DA"/>
<path d="M1444.5 -32.5485L1408.39 -89.3193L1309.83 40.8751L1444.5 -32.5485Z" fill="#E200D9" stroke="#E200D9"/>
<path d="M1667.19 1112.71L1744.69 959.806L1658.17 1002.19L1667.19 1112.71Z" fill="#7D0EF6" stroke="#7D0EF6"/>
<path d="M1694.28 932.555L1744.69 959.805L1719.11 868.972L1694.28 932.555Z" fill="#8905F3" stroke="#8905F3"/>
<path d="M252.788 713.042L312.975 776.625L385.2 741.048L252.788 713.042Z" fill="#B000EA" stroke="#B000EA"/>
<path d="M385.2 741.049L312.975 776.625L462.692 846.264L385.2 741.049Z" fill="#AB00EB" stroke="#AB00EB"/>
<path d="M1749.2 45.4167L1614.53 46.9306L1592.71 136.25L1749.2 45.4167Z" fill="#DA00DD" stroke="#DA00DD"/>
<path d="M1804.87 440.542L1779.29 277.799L1710.08 433.729L1804.87 440.542Z" fill="#C000E5" stroke="#C000E5"/>
<path d="M1804.87 440.542L1710.08 433.729L1782.3 501.097L1804.87 440.542Z" fill="#B900E7" stroke="#B900E7"/>
<path d="M1888.38 508.667L1804.87 440.542L1782.3 501.097L1888.38 508.667Z" fill="#B700E8" stroke="#B700E8"/>
<path d="M500.309 -34.0625L489.776 55.2569L663.567 28.0069L500.309 -34.0625Z" fill="#E300D9" stroke="#E300D9"/>
<path d="M395.733 261.903L338.555 171.069L352.097 327L395.733 261.903Z" fill="#D400DF" stroke="#D400DF"/>
<path d="M284.386 448.868L346.831 419.347L352.097 327L284.386 448.868Z" fill="#CA00E2" stroke="#CA00E2"/>
<path d="M284.386 448.868L287.395 448.111L346.831 419.347L284.386 448.868Z" fill="#C700E3" stroke="#C700E3"/>
<path d="M252.788 713.042L271.596 867.458L312.975 776.625L252.788 713.042Z" fill="#AD00EB" stroke="#AD00EB"/>
<path d="M450.654 103.701L414.542 151.389L509.337 165.014L450.654 103.701Z" fill="#DB00DC" stroke="#DB00DC"/>
<path d="M1587.45 1136.93L1667.19 1112.71L1658.17 1002.19L1587.45 1136.93Z" fill="#7612F7" stroke="#7612F7"/>
<path d="M489.776 55.2568L450.654 103.701L509.337 165.014L489.776 55.2568Z" fill="#DD00DB" stroke="#DD00DB"/>
<path d="M1592.71 136.25L1614.53 46.9307L1542.3 156.688L1592.71 136.25Z" fill="#D700DE" stroke="#D700DE"/>
<path d="M1749.2 45.4167L1592.71 136.25L1692.77 219.514L1749.2 45.4167Z" fill="#D500DE" stroke="#D500DE"/>
<path d="M230.97 297.479L284.386 448.868L352.097 327L230.97 297.479Z" fill="#CD00E1" stroke="#CD00E1"/>
<path d="M200.876 566.194L252.788 713.042L320.499 609.34L200.876 566.194Z" fill="#B900E7" stroke="#B900E7"/>
<path d="M1614.53 46.9307L1521.99 -48.4443L1429.45 44.6598L1614.53 46.9307Z" fill="#DF00DB" stroke="#DF00DB"/>
<path d="M476.986 1071.08L461.187 1149.8L562.753 1124.82L476.986 1071.08Z" fill="#9100F2" stroke="#9100F2"/>
<path d="M365.639 1165.69L461.187 1149.8L476.986 1071.08L365.639 1165.69Z" fill="#9200F2" stroke="#9200F2"/>
<path d="M1892.14 719.854L1875.59 591.931L1795.84 638.861L1892.14 719.854Z" fill="#A600ED" stroke="#A600ED"/>
<path d="M1795.84 638.861L1875.59 591.93L1782.3 501.097L1795.84 638.861Z" fill="#AE00EB" stroke="#AE00EB"/>
<path d="M1915.47 217.243L1766.5 195.292L1779.29 277.798L1915.47 217.243Z" fill="#CD00E1" stroke="#CD00E1"/>
<path d="M1892.14 719.854L1795.84 638.861L1783.81 736.507L1892.14 719.854Z" fill="#A100EE" stroke="#A100EE"/>
<path d="M271.596 867.458L275.358 862.917L312.975 776.625L271.596 867.458Z" fill="#A900EC" stroke="#A900EC"/>
<path d="M312.975 776.625L275.358 862.917L462.692 846.264L312.975 776.625Z" fill="#A900EC" stroke="#A900EC"/>
<path d="M1850.77 381.5L1779.29 277.799L1804.87 440.542L1850.77 381.5Z" fill="#C100E5" stroke="#C100E5"/>
<path d="M1779.29 277.798L1766.5 195.292L1692.77 219.514L1779.29 277.798Z" fill="#CD00E1" stroke="#CD00E1"/>
<path d="M1614.53 46.9307L1681.49 -18.1666L1521.99 -48.4443L1614.53 46.9307Z" fill="#E000DA" stroke="#E000DA"/>
<path d="M252.788 713.042L385.2 741.049L320.499 609.34L252.788 713.042Z" fill="#B400E9" stroke="#B400E9"/>
<path d="M275.358 862.917L315.984 1021.88L482.252 950.722L275.358 862.917Z" fill="#A000EE" stroke="#A000EE"/>
<path d="M1888.38 508.667L1850.77 381.5L1804.87 440.542L1888.38 508.667Z" fill="#BA00E7" stroke="#BA00E7"/>
<path d="M200.876 566.194L320.499 609.34L287.395 448.111L200.876 566.194Z" fill="#C000E5" stroke="#C000E5"/>
<path d="M1875.59 591.93L1888.38 508.667L1782.3 501.097L1875.59 591.93Z" fill="#B200EA" stroke="#B200EA"/>
<path d="M340.812 109L338.555 171.069L414.541 151.389L340.812 109Z" fill="#DC00DC" stroke="#DC00DC"/>
<path d="M414.541 151.389L338.555 171.069L395.733 261.903L414.541 151.389Z" fill="#D800DD" stroke="#D800DD"/>
<path d="M340.812 109L414.541 151.389L450.654 103.701L340.812 109Z" fill="#DD00DB" stroke="#DD00DB"/>
<path d="M222.694 890.167L315.984 1021.88L275.358 862.917L222.694 890.167Z" fill="#A300EE" stroke="#A300EE"/>
<path d="M1849.26 988.569L1719.11 868.972L1744.69 959.805L1849.26 988.569Z" fill="#8607F4" stroke="#8607F4"/>
<path d="M1876.35 810.688L1719.11 868.972L1849.26 988.569L1876.35 810.688Z" fill="#8C03F3" stroke="#8C03F3"/>
<path d="M1876.35 810.687L1743.93 783.438L1719.11 868.972L1876.35 810.687Z" fill="#9400F1" stroke="#9400F1"/>
<path d="M1875.59 591.93L2004.24 521.535L1888.38 508.667L1875.59 591.93Z" fill="#B100EA" stroke="#B100EA"/>
<path d="M553.725 -118.84L500.309 -34.0626L663.567 28.0069L553.725 -118.84Z" fill="#E700D7" stroke="#E700D7"/>
<path d="M489.776 55.2568L393.476 -33.3057L450.654 103.701L489.776 55.2568Z" fill="#E200D9" stroke="#E200D9"/>
<path d="M553.725 -118.84L663.567 28.007L604.884 -155.174L553.725 -118.84Z" fill="#E900D6" stroke="#E900D6"/>
<path d="M1849.26 988.57L1744.69 959.806L1765 1114.98L1849.26 988.57Z" fill="#7C0FF6" stroke="#7C0FF6"/>
<path d="M194.105 472.333L287.395 448.111L284.386 448.868L194.105 472.333Z" fill="#C600E3" stroke="#C600E3"/>
<path d="M194.105 472.333L200.876 566.194L287.395 448.111L194.105 472.333Z" fill="#C400E4" stroke="#C400E4"/>
<path d="M252.788 713.042L222.694 890.166L271.596 867.458L252.788 713.042Z" fill="#AB00EC" stroke="#AB00EC"/>
<path d="M604.885 -155.174L663.567 28.007L774.162 -94.618L604.885 -155.174Z" fill="#E800D7" stroke="#E800D7"/>
<path d="M1765 1114.98L1744.69 959.806L1667.19 1112.71L1765 1114.98Z" fill="#7711F6" stroke="#7711F6"/>
<path d="M173.792 424.646L194.105 472.333L284.386 448.868L173.792 424.646Z" fill="#C700E3" stroke="#C700E3"/>
<path d="M1749.2 45.4166L1681.49 -18.1667L1614.53 46.9305L1749.2 45.4166Z" fill="#DD00DB" stroke="#DD00DB"/>
<path d="M393.476 -33.3056L489.776 55.2569L500.309 -34.0625L393.476 -33.3056Z" fill="#E500D8" stroke="#E500D8"/>
<path d="M351.345 -2.271L340.812 109L450.654 103.701L351.345 -2.271Z" fill="#E100DA" stroke="#E100DA"/>
<path d="M338.555 171.069L230.97 297.479L352.097 327L338.555 171.069Z" fill="#D400DF" stroke="#D400DF"/>
<path d="M1916.97 125.653L1749.2 45.4167L1766.5 195.292L1916.97 125.653Z" fill="#D600DE" stroke="#D600DE"/>
<path d="M1766.5 195.292L1749.2 45.4167L1692.77 219.514L1766.5 195.292Z" fill="#D300DF" stroke="#D300DF"/>
<path d="M214.418 161.986L230.97 297.479L338.555 171.069L214.418 161.986Z" fill="#D800DD" stroke="#D800DD"/>
<path d="M2013.27 454.924L1888.38 314.889L1850.77 381.5L2013.27 454.924Z" fill="#C000E6" stroke="#C000E6"/>
<path d="M1850.77 381.5L1888.38 314.889L1779.29 277.799L1850.77 381.5Z" fill="#C500E4" stroke="#C500E4"/>
<path d="M2013.27 454.924L1850.77 381.5L1888.38 508.667L2013.27 454.924Z" fill="#BA00E7" stroke="#BA00E7"/>
<path d="M315.984 1021.88L365.639 1165.69L476.986 1071.08L315.984 1021.88Z" fill="#9600F1" stroke="#9600F1"/>
<path d="M252.035 1046.85L365.639 1165.69L315.984 1021.88L252.035 1046.85Z" fill="#9800F0" stroke="#9800F0"/>
<path d="M91.0337 773.597L222.694 890.166L252.788 713.042L91.0337 773.597Z" fill="#AE00EB" stroke="#AE00EB"/>
<path d="M271.596 867.458L222.694 890.167L275.358 862.917L271.596 867.458Z" fill="#A700ED" stroke="#A700ED"/>
<path d="M1926.75 956.021L1876.35 810.688L1849.26 988.569L1926.75 956.021Z" fill="#8806F4" stroke="#8806F4"/>
<path d="M1876.35 810.687L1954.59 797.062L1892.14 719.854L1876.35 810.687Z" fill="#9900F0" stroke="#9900F0"/>
<path d="M2005 630.535L2004.24 521.535L1875.59 591.93L2005 630.535Z" fill="#AD00EB" stroke="#AD00EB"/>
<path d="M1990.7 944.667L1954.59 797.062L1876.35 810.687L1990.7 944.667Z" fill="#9000F2" stroke="#9000F2"/>
<path d="M1926.75 956.021L1849.26 988.569L1929.76 1077.89L1926.75 956.021Z" fill="#7C0FF6" stroke="#7C0FF6"/>
<path d="M214.418 161.986L149.716 318.674L230.97 297.479L214.418 161.986Z" fill="#D500DE" stroke="#D500DE"/>
<path d="M194.105 472.333L146.707 514.722L200.876 566.194L194.105 472.333Z" fill="#C300E5" stroke="#C300E5"/>
<path d="M200.876 566.194L85.0149 684.278L252.788 713.042L200.876 566.194Z" fill="#B900E8" stroke="#B900E8"/>
<path d="M230.97 297.479L173.792 424.646L284.386 448.868L230.97 297.479Z" fill="#CB00E2" stroke="#CB00E2"/>
<path d="M222.694 890.167L252.035 1046.85L315.984 1021.88L222.694 890.167Z" fill="#9F00EF" stroke="#9F00EF"/>
<path d="M1888.38 314.889L1915.47 217.243L1779.29 277.799L1888.38 314.889Z" fill="#CA00E2" stroke="#CA00E2"/>
<path d="M1749.2 45.4166L1792.08 -9.08342L1681.49 -18.1667L1749.2 45.4166Z" fill="#DF00DB" stroke="#DF00DB"/>
<path d="M1992.96 303.535L1915.47 217.243L1888.38 314.889L1992.96 303.535Z" fill="#C900E3" stroke="#C900E3"/>
<path d="M173.791 424.646L146.707 514.722L194.105 472.333L173.791 424.646Z" fill="#C600E3" stroke="#C600E3"/>
<path d="M393.476 -33.3057L351.345 -2.27094L450.654 103.701L393.476 -33.3057Z" fill="#E400D9" stroke="#E400D9"/>
<path d="M230.97 297.479L149.716 318.673L173.791 424.646L230.97 297.479Z" fill="#CF00E0" stroke="#CF00E0"/>
<path d="M1929.76 1077.89L1765 1114.98L1927.5 1164.94L1929.76 1077.89Z" fill="#6D16F8" stroke="#6D16F8"/>
<path d="M1929.76 1077.89L1849.26 988.569L1765 1114.98L1929.76 1077.89Z" fill="#7612F7" stroke="#7612F7"/>
<path d="M1916.97 125.653L1792.08 -9.0835L1749.2 45.4165L1916.97 125.653Z" fill="#DB00DC" stroke="#DB00DC"/>
<path d="M2005 630.535L1875.59 591.931L1892.14 719.854L2005 630.535Z" fill="#A600ED" stroke="#A600ED"/>
<path d="M214.418 161.986L338.555 171.069L340.812 109L214.418 161.986Z" fill="#DC00DC" stroke="#DC00DC"/>
<path d="M173.792 424.646L23.3228 485.958L146.707 514.722L173.792 424.646Z" fill="#C700E3" stroke="#C700E3"/>
<path d="M188.086 46.1736L214.418 161.986L340.812 109L188.086 46.1736Z" fill="#DF00DA" stroke="#DF00DA"/>
<path d="M2023.8 746.347L2005 630.535L1892.14 719.854L2023.8 746.347Z" fill="#A100EE" stroke="#A100EE"/>
<path d="M2023.8 746.347L1892.14 719.854L1954.59 797.062L2023.8 746.347Z" fill="#9B00F0" stroke="#9B00F0"/>
<path d="M23.3228 485.958L109.09 573.007L146.707 514.722L23.3228 485.958Z" fill="#C300E4" stroke="#C300E4"/>
<path d="M146.707 514.722L109.09 573.007L200.876 566.194L146.707 514.722Z" fill="#C100E5" stroke="#C100E5"/>
<path d="M117.366 1037.01L223.446 1106.65L252.035 1046.85L117.366 1037.01Z" fill="#9C00EF" stroke="#9C00EF"/>
<path d="M109.09 573.007L85.0149 684.278L200.876 566.194L109.09 573.007Z" fill="#BD00E6" stroke="#BD00E6"/>
<path d="M2013.27 454.924L1888.38 508.667L2004.24 521.535L2013.27 454.924Z" fill="#B500E9" stroke="#B500E9"/>
<path d="M2013.27 454.924L1992.96 303.535L1888.38 314.889L2013.27 454.924Z" fill="#C200E5" stroke="#C200E5"/>
<path d="M1915.47 217.243L1916.97 125.653L1766.5 195.292L1915.47 217.243Z" fill="#D100E0" stroke="#D100E0"/>
<path d="M2014.02 214.972L1916.97 125.653L1915.47 217.243L2014.02 214.972Z" fill="#D000E0" stroke="#D000E0"/>
<path d="M252.035 1046.85L223.446 1106.65L365.639 1165.69L252.035 1046.85Z" fill="#9700F0" stroke="#9700F0"/>
<path d="M117.366 1037.01L252.035 1046.85L222.694 890.167L117.366 1037.01Z" fill="#A000EE" stroke="#A000EE"/>
<path d="M1926.75 956.021L1990.7 944.667L1876.35 810.688L1926.75 956.021Z" fill="#8905F3" stroke="#8905F3"/>
<path d="M42.1313 744.076L91.0337 773.597L85.0149 684.278L42.1313 744.076Z" fill="#B500E9" stroke="#B500E9"/>
<path d="M85.0149 684.278L91.0336 773.597L252.788 713.042L85.0149 684.278Z" fill="#B400E9" stroke="#B400E9"/>
<path d="M91.0337 773.597L103.071 890.924L222.694 890.167L91.0337 773.597Z" fill="#AB00EC" stroke="#AB00EC"/>
<path d="M2041.11 1061.24L1990.7 944.667L1926.75 956.021L2041.11 1061.24Z" fill="#7E0DF5" stroke="#7E0DF5"/>
<path d="M212.913 -19.6807L188.086 46.1735L340.812 109L212.913 -19.6807Z" fill="#E300D9" stroke="#E300D9"/>
<path d="M-9.7804 565.438L42.1313 744.076L85.0149 684.278L-9.7804 565.438Z" fill="#BA00E7" stroke="#BA00E7"/>
<path d="M8.27588 807.66L71.4728 940.882L103.071 890.924L8.27588 807.66Z" fill="#AB00EC" stroke="#AB00EC"/>
<path d="M-9.7804 565.438L85.0149 684.278L109.09 573.007L-9.7804 565.438Z" fill="#BE00E6" stroke="#BE00E6"/>
<path d="M1992.96 303.535L2014.02 214.972L1915.47 217.243L1992.96 303.535Z" fill="#CB00E2" stroke="#CB00E2"/>
<path d="M1916.97 125.653L1865.06 -55.2568L1792.08 -9.08322L1916.97 125.653Z" fill="#DD00DB" stroke="#DD00DB"/>
<path d="M1970.39 -17.4096L1865.06 -55.2568L1916.97 125.653L1970.39 -17.4096Z" fill="#DD00DB" stroke="#DD00DB"/>
<path d="M71.4727 940.882L117.366 1037.01L103.071 890.924L71.4727 940.882Z" fill="#A500ED" stroke="#A500ED"/>
<path d="M103.071 890.924L117.366 1037.01L222.694 890.167L103.071 890.924Z" fill="#A500ED" stroke="#A500ED"/>
<path d="M212.913 -19.6807L340.812 109L351.345 -2.27094L212.913 -19.6807Z" fill="#E400D9" stroke="#E400D9"/>
<path d="M214.418 161.986L102.319 174.097L149.717 318.674L214.418 161.986Z" fill="#D800DD" stroke="#D800DD"/>
<path d="M12.7899 393.611L23.3227 485.958L173.791 424.646L12.7899 393.611Z" fill="#CA00E2" stroke="#CA00E2"/>
<path d="M145.202 83.2639L102.319 174.097L214.418 161.986L145.202 83.2639Z" fill="#DE00DB" stroke="#DE00DB"/>
<path d="M2014.02 214.972L2017.03 112.028L1916.97 125.653L2014.02 214.972Z" fill="#D300DF" stroke="#D300DF"/>
<path d="M188.086 46.1736L145.202 83.2639L214.418 161.986L188.086 46.1736Z" fill="#E000DA" stroke="#E000DA"/>
<path d="M164.763 26.4932L145.202 83.264L188.086 46.1737L164.763 26.4932Z" fill="#E300D9" stroke="#E300D9"/>
<path d="M12.7899 393.611L149.716 318.674L40.6266 292.181L12.7899 393.611Z" fill="#D100E0" stroke="#D100E0"/>
<path d="M12.7899 393.611L173.791 424.646L149.716 318.674L12.7899 393.611Z" fill="#CE00E1" stroke="#CE00E1"/>
<path d="M8.27588 807.66L103.071 890.924L91.0337 773.597L8.27588 807.66Z" fill="#AE00EB" stroke="#AE00EB"/>
<path d="M117.366 1037.01L150.469 1128.6L223.446 1106.65L117.366 1037.01Z" fill="#9B00EF" stroke="#9B00EF"/>
<path d="M8.27588 807.66L91.0337 773.597L42.1313 744.076L8.27588 807.66Z" fill="#B200EA" stroke="#B200EA"/>
<path d="M118.118 -142.306L164.763 26.493L212.913 -19.6807L118.118 -142.306Z" fill="#EA00D6" stroke="#EA00D6"/>
<path d="M212.913 -19.6807L164.763 26.4929L188.086 46.1735L212.913 -19.6807Z" fill="#E500D8" stroke="#E500D8"/>
<path d="M60.9399 1040.04L150.469 1128.6L117.366 1037.01L60.9399 1040.04Z" fill="#9E00EF" stroke="#9E00EF"/>
<path d="M-52.664 730.451L8.27584 807.66L42.1313 744.076L-52.664 730.451Z" fill="#B400E9" stroke="#B400E9"/>
<path d="M40.6266 292.181L149.716 318.674L102.319 174.097L40.6266 292.181Z" fill="#D600DE" stroke="#D600DE"/>
<path d="M-117.366 476.118L-9.78045 565.438L23.3227 485.958L-117.366 476.118Z" fill="#C600E3" stroke="#C600E3"/>
<path d="M23.3227 485.958L-9.7804 565.438L109.09 573.007L23.3227 485.958Z" fill="#C300E5" stroke="#C300E5"/>
<path d="M52.6641 111.271L102.319 174.097L145.202 83.2639L52.6641 111.271Z" fill="#DF00DA" stroke="#DF00DA"/>
<path d="M-11.2851 151.389L40.6266 292.181L102.319 174.097L-11.2851 151.389Z" fill="#DA00DC" stroke="#DA00DC"/>
<path d="M-30.846 1083.19L60.9399 1040.04L-44.3882 1077.89L-30.846 1083.19Z" fill="#A100EE" stroke="#A100EE"/>
<path d="M71.4728 940.882L60.9399 1040.04L117.366 1037.01L71.4728 940.882Z" fill="#A200EE" stroke="#A200EE"/>
<path d="M2017.03 112.028L1970.39 -17.4097L1916.97 125.653L2017.03 112.028Z" fill="#D900DD" stroke="#D900DD"/>
<path d="M164.763 26.4932L52.6641 111.271L145.202 83.264L164.763 26.4932Z" fill="#E200D9" stroke="#E200D9"/>
<path d="M-11.2851 151.389L52.6641 111.271L-67.7109 87.8057L-11.2851 151.389Z" fill="#E100DA" stroke="#E100DA"/>
<path d="M-9.78041 565.438L-52.664 730.451L42.1313 744.076L-9.78041 565.438Z" fill="#BA00E7" stroke="#BA00E7"/>
<path d="M-44.3882 1077.89L60.9399 1040.04L71.4728 940.882L-44.3882 1077.89Z" fill="#A300EE" stroke="#A300EE"/>
<path d="M-117.366 476.118L23.3227 485.958L12.7899 393.611L-117.366 476.118Z" fill="#CA00E2" stroke="#CA00E2"/>
<path d="M52.6641 111.271L-11.2851 151.389L102.319 174.097L52.6641 111.271Z" fill="#DE00DB" stroke="#DE00DB"/>
<path d="M40.6267 292.181L-70.7202 285.368L12.7899 393.611L40.6267 292.181Z" fill="#D300DF" stroke="#D300DF"/>
<path d="M-19.5609 -65.8542L52.6641 111.271L164.763 26.493L-19.5609 -65.8542Z" fill="#E600D8" stroke="#E600D8"/>
<path d="M-11.2851 151.389L-70.7202 285.368L40.6267 292.181L-11.2851 151.389Z" fill="#D800DD" stroke="#D800DD"/>
<path d="M-126.394 345.924L-117.366 476.118L12.7899 393.611L-126.394 345.924Z" fill="#CE00E1" stroke="#CE00E1"/>
<path d="M-44.3882 1077.89L71.4727 940.882L-92.5382 894.708L-44.3882 1077.89Z" fill="#A700ED" stroke="#A700ED"/>
<path d="M71.4727 940.882L8.27586 807.66L-92.5382 894.708L71.4727 940.882Z" fill="#AC00EB" stroke="#AC00EB"/>
<path d="M60.9399 1040.04L-27.0844 1175.53L150.469 1128.6L60.9399 1040.04Z" fill="#9D00EF" stroke="#9D00EF"/>
<path d="M-92.5383 894.709L8.27581 807.66L-106.08 765.271L-92.5383 894.709Z" fill="#B100EA" stroke="#B100EA"/>
<path d="M-106.08 765.271L8.27581 807.66L-52.664 730.451L-106.08 765.271Z" fill="#B400E9" stroke="#B400E9"/>
<path d="M-27.0844 1175.53L60.9399 1040.04L-30.8461 1083.19L-27.0844 1175.53Z" fill="#9F00EF" stroke="#9F00EF"/>
<path d="M-70.7202 285.368L-126.394 345.924L12.7899 393.611L-70.7202 285.368Z" fill="#D200DF" stroke="#D200DF"/>
<path d="M118.118 -142.306L43.636 -102.945L164.763 26.493L118.118 -142.306Z" fill="#EC00D5" stroke="#EC00D5"/>
<path d="M-66.2062 11.3542L-67.7109 87.8056L52.6641 111.271L-66.2062 11.3542Z" fill="#E400D9" stroke="#E400D9"/>
<path d="M43.636 -102.944L-19.5609 -65.8541L164.763 26.4932L43.636 -102.944Z" fill="#EB00D6" stroke="#EB00D6"/>
<path d="M-19.5609 -65.8542L-66.2062 11.3541L52.6641 111.271L-19.5609 -65.8542Z" fill="#E700D7" stroke="#E700D7"/>
<path d="M806.124 0.99988L1926 -0.000245034L1161.69 1090L-0.000626776 1090L806.124 0.99988Z" fill="#020004"/>
</g>
<defs>
<clipPath id="clip0_2044_547">
<rect width="1926" height="1090" fill="white"/>
</clipPath>
</defs>
</svg>
